<svg width="24" height="24" viewBox="0 0 24 24" fill="none" xmlns="http://www.w3.org/2000/svg">
<path d="M16.2828 2.68284L21.3172 7.71716C21.5691 7.96914 22 7.79068 22 7.43431V3C22 2.44772 21.5523 2 21 2H16.5657C16.2093 2 16.0309 2.43086 16.2828 2.68284Z" fill="#DA5CC7"/>
<path d="M12.5464 2.14645L21.8536 11.4536C21.9473 11.5473 22 11.6745 22 11.8071V14.6343C22 14.9907 21.5691 15.1691 21.3172 14.9172L9.08284 2.68284C8.83086 2.43086 9.00932 2 9.36569 2H12.1929C12.3255 2 12.4527 2.05268 12.5464 2.14645Z" fill="#DA5CC7"/>
<path d="M5.34645 2.14645L21.8536 18.6536C21.9473 18.7473 22 18.8745 22 19.0071V21C22 21.5523 21.5523 22 21 22H16.1C15.8239 22 15.6 21.7761 15.6 21.5V20.8C15.6 18.8118 13.9882 17.2 12 17.2C10.0118 17.2 8.4 18.8118 8.4 20.8V21.5C8.4 21.7761 8.17614 22 7.9 22H3C2.44772 22 2 21.5523 2 21V16.1C2 15.8239 2.22386 15.6 2.5 15.6H3.2C5.18823 15.6 6.8 13.9882 6.8 12C6.8 10.0118 5.18823 8.4 3.2 8.4H2.5C2.22386 8.4 2 8.17614 2 7.9V3C2 2.44772 2.44772 2 3 2H4.99289C5.1255 2 5.25268 2.05268 5.34645 2.14645Z" fill="#DA5CC7"/>
</svg>
